<?xml version='1.0' encoding='utf-8'?>
<svg xmlns="http://www.w3.org/2000/svg" xmlns:ns1="http://www.inkscape.org/namespaces/inkscape" width="35" height="37" viewBox="105 0 35 37" preserveAspectRatio="none"><defs><filter y="-0.0071842985" height="1.0143686" ns1:menu-tooltip="Darkens the edge with an inner blur and adds a flexible glow" ns1:menu="Shadows and Glows" ns1:label="Dark and Glow" style="color-interpolation-filters:sRGB;" id="filter955" x="-0.0125953" width="1.0251906">
      <feGaussianBlur stdDeviation="5" result="result6" id="feGaussianBlur953" />
      <feComposite result="result8" in="SourceGraphic" operator="atop" in2="result6" id="feComposite954" />
      <feComposite result="result9" operator="over" in2="SourceAlpha" in="result8" id="feComposite955" />
      <feColorMatrix values="1 0 0 0 0 0 1 0 0 0 0 0 1 0 0 0 0 0 1 0 " result="result10" id="feColorMatrix955" />
      <feBlend in="result10" mode="normal" in2="result6" id="feBlend955" />
    </filter>
    </defs><g ns1:label="character" ns1:groupmode="layer" id="layer1" style="display:inline" transform="translate(-7.4299545,-111.66332)">
    <g id="g4" transform="matrix(0.01898575,0,0,-0.0165946,21.22401,116.92821)" style="display:inline;filter:url(#filter955)">
      <path d="m 5636.7778,7.3819763 c -7.7614,-3.2593416 -11.0876,-21.7289413 -7.7614,-45.6307753 3.3265,-32.593407 -4.435,-55.408798 -45.4592,-126.027841 -60.982,-104.29893 -156.3354,-229.24033 -238.3837,-315.06964 -51.0031,-52.14946 -56.5467,-61.92749 -34.3716,-55.4088 95.3535,27.16117 250.5802,172.74508 354.8036,331.36634 19.9578,30.42052 39.9154,54.32236 44.3507,54.32236 4.435,0 47.6766,-47.80368 95.3534,-105.38537 125.29,-153.18903 179.6193,-207.51138 215.0997,-215.11651 33.2629,-7.60513 162.988,13.03737 171.8579,27.16117 3.3265,4.34579 -42.1328,35.85276 -100.8973,70.61906 -97.5708,57.58169 -262.7764,183.60955 -323.7583,247.70992 -21.0664,21.72894 -24.3927,31.50696 -14.4138,48.890116 9.9789,17.383149 7.7612,26.074724 -6.6526,41.284984 -16.6313,15.210258 -84.2658,49.976562 -94.2447,46.71722 -2.2176,0 -8.87,-3.2593403 -15.5227,-5.4322337 z" id="path1" style="stroke-width:1.09755" />
      <path d="m 5738.7838,-309.86055 c -3.3263,-5.43223 -46.5679,-21.72893 -95.3533,-35.85275 -48.7857,-13.03737 -88.701,-28.24762 -88.701,-33.67986 0,-14.12381 53.2205,-42.37143 74.2869,-39.11209 14.4141,2.1729 21.0665,-4.34579 23.2841,-26.07473 3.3263,-27.16117 0,-29.33407 -60.9819,-41.28498 -103.1149,-20.64249 -102.0061,-19.55604 -65.4169,-51.06301 22.1751,-18.4696 38.8066,-24.98829 55.4381,-19.55604 78.7219,23.90182 74.287,27.16117 70.9607,-66.27327 l -3.3261,-84.74288 -60.982,-13.03736 c -33.2629,-7.60513 -79.8309,-14.12381 -102.006,-15.21026 -52.1119,0 -55.4381,-21.72894 -8.8704,-54.32235 l 32.1542,-22.81538 75.3957,23.90182 c 63.1996,20.6425 100.8974,24.98828 230.6226,24.98828 l 155.2264,1.08646 v 26.07472 c 0,18.46961 -11.0876,33.67987 -35.4802,47.80368 -32.1542,17.38315 -43.2417,18.46959 -92.0273,8.69158 -31.0454,-6.5187 -68.7431,-11.95093 -84.2657,-11.95093 -27.7192,0 -27.7192,0 -24.3928,90.17511 l 3.3262,89.08866 33.2627,3.25933 c 85.3748,6.51868 105.3327,14.12381 105.3327,35.85275 0,31.50696 -46.5682,48.89011 -93.1362,34.7663 -36.5891,-10.86447 -37.6977,-9.77801 -42.133,19.55605 -4.435,27.16117 -1.1085,30.42053 36.5891,36.93921 53.2208,8.69157 75.3958,32.59341 53.2208,54.32234 -19.9577,19.55606 -83.1572,32.59341 -92.0274,18.4696 z" id="path6" style="stroke-width:1.09755" />
      <path d="m 5803.092,-546.706 c 7.7615,-19.55605 -7.7612,-53.23591 -41.0242,-88.00221 -12.1962,-14.12381 -18.8489,-28.24762 -15.5226,-32.59341 11.0876,-9.77802 157.444,58.66814 160.7705,77.13773 4.435,20.6425 -49.8944,60.84105 -83.1572,60.84105 -21.0665,0 -26.6103,-4.3458 -21.0665,-17.38316 z" id="path7" style="stroke-width:1.09755" />
      <path d="m 5499.2914,-587.99098 c 0,-15.21026 28.8277,-80.39708 42.133,-95.60734 25.5015,-29.33407 56.5469,-24.98829 63.1993,10.86447 3.3263,16.2967 11.0877,43.45789 16.6315,60.84103 9.9788,29.33407 8.87,29.33407 -9.9789,13.03736 -17.7402,-16.2967 -23.2839,-16.2967 -52.1118,-1.08645 -29.9366,15.21026 -59.8731,21.72895 -59.8731,11.95093 z" id="path8" style="stroke-width:1.09755" />
      <path d="m 5845.6201,-838.09974 c 0,-19.55604 -20.704,-47.80365 -73.6141,-97.78022 -40.2576,-38.02565 -66.7126,-69.53264 -58.6612,-69.53264 12.6525,0 116.1722,47.80369 227.7435,104.29895 17.2533,9.77801 31.0558,26.07472 31.0558,36.93919 0,24.98828 -54.0601,54.32235 -97.7684,54.32235 -23.0045,0 -28.7556,-5.43224 -28.7556,-28.24763 z" id="path12" style="stroke-width:1.11788" />
      <path d="m 5494.8033,-864.17446 c -3.4506,-5.43224 1.1502,-21.72893 10.352,-34.76631 12.6524,-16.2967 18.4033,-48.89011 18.4033,-96.69375 V -1067.34 l -36.8069,-7.6051 c -19.5538,-3.2594 -37.9572,-4.3458 -40.2577,-2.173 -3.4506,2.173 0,22.8155 6.9014,46.7172 11.5022,36.9393 10.352,43.45794 -11.5022,60.84107 -25.3048,18.46961 -102.3696,26.07474 -102.3696,8.69158 0,-5.43223 8.0516,-15.21025 17.2534,-22.81538 10.3518,-8.69157 17.2533,-32.59347 17.2533,-64.10037 0,-45.6308 -3.4506,-52.1494 -31.056,-61.9274 l -29.9058,-9.7781 31.0562,-34.7663 c 36.807,-42.3713 44.8584,-43.4579 87.4165,-14.1238 17.2533,11.9509 44.8585,26.0747 62.1118,32.5935 29.9056,9.778 29.9056,9.778 29.9056,-43.4579 0,-53.236 -1.15,-54.3224 -34.5065,-54.3224 -19.5536,0 -60.9614,-11.951 -92.0173,-27.1612 -31.0562,-15.2103 -70.1635,-27.1612 -86.2666,-27.1612 -17.2533,0 -28.7556,-6.5186 -28.7556,-15.2102 0,-15.2103 44.8587,-55.4088 71.3137,-63.014 17.2534,-5.4322 -6.9013,-70.619 -37.9572,-102.1261 -19.5537,-19.556 -21.8542,-30.4205 -13.8026,-55.4087 6.9011,-18.4695 20.704,-31.5069 35.6567,-33.6798 20.704,-3.2594 31.056,6.5187 54.0605,54.3223 16.103,31.507 34.5064,85.8293 41.4078,120.5956 11.5023,53.236 19.5537,65.187 47.159,79.3107 19.5536,9.778 35.6567,15.2102 36.807,13.0373 2.3003,-2.1728 0,-46.7172 -3.4509,-101.0395 l -6.9011,-97.7802 -31.0559,2.1728 c -18.4036,1.0865 -32.2062,0 -32.2062,-3.2593 0,-2.1729 18.4034,-31.507 41.4079,-64.1004 44.8585,-64.1003 75.9143,-74.9648 97.7685,-36.9392 8.0517,15.2103 13.8028,123.855 16.1032,312.8968 2.3004,183.6095 8.0516,299.8593 16.103,320.50179 18.4037,42.37144 8.0517,64.10039 -39.1073,85.82932 -47.159,20.6425 -70.1634,22.81538 -80.5154,7.60513 z" id="path14" style="stroke-width:1.11788" />
      <path d="m 5934.1869,-958.69536 c -49.4594,-34.76624 -57.511,-36.93916 -89.7169,-26.07469 l -35.657,11.95088 8.0517,-41.28493 c 9.2016,-45.6307 34.5065,-78.2242 62.1117,-78.2242 11.5023,0 -2.3005,-16.2968 -33.3563,-43.4578 -60.9616,-49.9766 -55.2105,-53.236 24.1547,-15.2103 46.0087,21.7289 62.1117,24.9883 74.764,14.1237 9.2019,-6.5186 16.1031,-18.4695 16.1031,-24.9882 0,-10.8645 -219.6918,-77.1377 -301.3572,-90.1751 -39.1076,-6.5187 -40.2579,-14.1239 -3.4509,-46.7172 27.6054,-23.9018 32.2062,-24.9883 66.7129,-11.951 51.7599,20.6425 213.9407,66.2733 233.4943,66.2733 12.6526,0 16.1031,-27.1611 16.1031,-133.633 0,-79.3106 -4.6008,-137.9788 -12.6522,-145.5839 -8.0516,-7.6051 -31.0559,-7.6051 -70.1635,-1.0863 -31.0559,5.4322 -59.8114,7.605 -62.1117,5.4322 -9.2018,-7.6052 152.9791,-137.9788 171.3825,-137.9788 9.2017,0 31.0559,15.2102 48.3093,33.6798 l 29.9056,34.7663 -2.3003,180.3502 -2.3006,180.3502 h 79.3652 c 72.4637,0 79.3651,2.173 82.8157,22.8154 6.9014,43.4579 -88.5668,90.1752 -139.1764,68.4461 -25.3048,-10.8644 -34.5067,-8.6914 -60.9617,10.8646 -17.2532,11.9508 -39.1074,22.8153 -49.4594,22.8153 -11.5022,0 6.9015,22.8154 48.3093,57.5818 35.6568,31.5069 65.5624,64.10026 65.5624,70.61895 0,16.29669 -67.863,56.49524 -92.0175,55.40878 -9.2019,0 -41.4078,-17.38314 -72.4639,-39.11209 z m 21.8541,-55.40874 c -9.2016,-17.3833 -24.1545,-36.9392 -33.3561,-43.4579 -13.8029,-10.8645 -17.2534,-7.6051 -21.8542,19.556 -5.7512,34.7663 11.5022,53.23595 51.7598,54.32237 18.4034,0 18.4034,-2.17293 3.4505,-30.42047 z" id="path18" style="stroke-width:1.11788" />
      <path d="m 5681.1389,-1072.7722 c 20.7039,-67.3597 33.3561,-84.7429 60.9615,-84.7429 24.1545,0 34.5065,20.6424 34.5065,68.4461 0,30.4206 -5.7512,36.9392 -49.4593,54.3224 -26.4551,9.778 -51.7598,18.4695 -56.3607,18.4695 -3.4508,0 1.15,-26.0747 10.352,-56.4951 z" id="path19" style="stroke-width:1.11788" />
      <path d="m 5739.7999,-1338.9518 c -11.502,-2.1729 -20.704,-8.6916 -20.704,-11.9509 0,-15.2103 101.2193,-110.8176 117.3224,-110.8176 43.7085,0 59.8115,70.6191 24.1545,99.9532 -23.0042,18.4696 -89.7171,30.4205 -120.7729,22.8153 z" id="path23" style="stroke-width:1.11788" />
    </g>
    </g>
</svg>